<svg width="97" height="78" viewBox="0 0 97 78" fill="none" xmlns="http://www.w3.org/2000/svg">
<mask id="mask0_218_1597" style="mask-type:luminance" maskUnits="userSpaceOnUse" x="5" y="59" width="7" height="10">
<path d="M5.02295 59.2688H11.9941V68.7006H5.02295V59.2688Z" fill="white"/>
</mask>
<g mask="url(#mask0_218_1597)">
<path d="M8.52094 59.2688C6.64198 59.2688 5.07495 60.7437 5.07495 62.6291C5.07495 63.3451 5.29528 63.9847 5.7186 64.5837L8.25605 68.4429C8.37983 68.6314 8.66204 68.6314 8.78335 68.4429L11.3332 64.5694C11.7466 63.999 11.9669 63.326 11.9669 62.6291C11.9669 60.7747 10.4197 59.2688 8.52094 59.2688ZM8.52094 64.1565C7.65697 64.1565 6.9539 63.4716 6.9539 62.6291C6.9539 61.7867 7.65697 61.1017 8.52094 61.1017C9.38491 61.1017 10.088 61.7867 10.088 62.6291C10.088 63.4716 9.38491 64.1565 8.52094 64.1565Z" fill="#3E7DBB"/>
</g>
<mask id="mask1_218_1597" style="mask-type:luminance" maskUnits="userSpaceOnUse" x="0" y="5" width="18" height="54">
<path d="M0.5 5.15991H17.6111V58.3141H0.5V5.15991Z" fill="white"/>
</mask>
<g mask="url(#mask1_218_1597)">
<path d="M8.47124 57.9725C7.10968 55.6933 5.9932 53.3211 4.82473 50.9965C3.56219 48.4333 2.29718 45.8224 0.645979 43.4501C0.403374 43.1184 0.499921 42.8344 0.645979 42.5026C1.51985 40.8416 2.44324 39.1805 3.31959 37.5672C3.56219 37.14 3.65874 36.665 3.65874 36.1901C3.65874 30.1616 3.65874 24.1354 3.65874 18.1093C3.65874 15.8778 3.70825 13.6487 3.75529 11.4173C3.75529 10.8946 3.75529 10.5151 3.02747 10.5151C2.68584 10.5151 2.5893 10.2311 2.5893 9.8994C2.5893 8.52233 2.5893 7.14527 2.5893 5.77059C2.5893 5.2002 2.97796 5.24793 3.36662 5.24793C6.33235 5.24793 9.24857 5.24793 12.2143 5.24793C12.8456 5.24793 13.4793 5.24793 14.1106 5.2002C14.5487 5.2002 14.8409 5.29566 14.8409 5.81832C14.8409 7.14527 14.8409 8.4746 14.8409 9.80393C14.8409 10.1357 14.7418 10.4674 14.3061 10.4674C13.7219 10.4674 13.7714 10.8469 13.7714 11.2263C13.7714 13.9327 13.8185 16.6367 13.868 19.3909C13.868 24.8466 13.868 30.3525 13.868 35.8106C13.868 36.3786 13.9645 36.8536 14.2566 37.3762C15.18 38.9896 16.0539 40.6506 17.0268 42.264C17.2694 42.6912 17.2694 43.0706 17.0268 43.4978C14.3532 48.1016 11.9717 52.8461 9.34759 57.4976C9.15202 57.8293 8.78811 58.4857 8.47124 57.9725ZM8.52075 50.407C8.66681 52.0204 8.5356 56.5024 8.7287 58.1611C8.9713 55.1253 9.00596 49.4309 9.29808 46.4883C9.29808 46.0133 9.39462 45.6339 9.8328 45.3021C10.7067 44.6363 10.6596 43.3547 9.78329 42.7389C9.05547 42.264 8.13209 42.3594 7.54785 43.0229C6.96362 43.6888 6.96362 44.5432 7.6444 45.1589C8.08257 45.5384 8.37469 45.9179 8.37469 46.4883C8.37469 47.7699 8.37469 48.9822 8.52075 50.407Z" fill="#3E7DBB"/>
</g>
<mask id="mask2_218_1597" style="mask-type:luminance" maskUnits="userSpaceOnUse" x="3" y="66" width="11" height="4">
<path d="M3.75537 66.2566H13.2615V69.6933H3.75537V66.2566Z" fill="white"/>
</mask>
<g mask="url(#mask2_218_1597)">
<path d="M10.9693 66.2878L9.39232 68.6911C8.98385 69.3117 8.05551 69.3093 7.64952 68.6935L6.06764 66.2878C4.67884 66.6005 3.81982 67.1757 3.81982 67.863C3.81982 69.0515 6.2434 69.6935 8.52092 69.6935C10.7984 69.6935 13.2195 69.0515 13.2195 67.863C13.2195 67.1757 12.363 66.6005 10.9693 66.2878Z" fill="#3E7DBB"/>
</g>
<path d="M18.1021 14.4605V5.31079H24.0434V13.0742C24.0434 13.4059 24.0682 13.6856 24.1226 13.9159C24.1746 14.1486 24.3454 14.2624 24.6375 14.2624H25.0534V5.31079H30.9948V20.1642H24.182C23.0977 20.1642 22.0951 19.9637 21.1718 19.5602C20.2459 19.1591 19.5032 18.5353 18.9437 17.6886C18.3818 16.8445 18.1021 15.7676 18.1021 14.4605Z" fill="#3E7DBB"/>
<path d="M31.5884 5.31079H37.5297C38.5447 5.31079 39.4953 5.47913 40.3816 5.81581C41.2654 6.15248 42.0402 6.64265 42.7086 7.28134C43.3745 7.92251 43.8994 8.70232 44.2831 9.61828C44.6643 10.5367 44.8574 11.5764 44.8574 12.7375C44.8574 14.2699 44.5826 15.5943 44.0355 16.7083C43.4859 17.8248 42.6715 18.6838 41.5897 19.2829C40.5054 19.8844 39.1537 20.184 37.5297 20.184V25.1153H31.5884V5.31079ZM37.5297 11.1927V14.4209C37.7921 14.4209 38.0174 14.3367 38.2031 14.1634C38.3863 13.9926 38.5299 13.7847 38.6289 13.5396C38.7279 13.297 38.7774 13.0544 38.7774 12.8167C38.7774 12.3686 38.6536 11.9849 38.411 11.668C38.166 11.3512 37.8714 11.1927 37.5297 11.1927Z" fill="#3E7DBB"/>
<path d="M52.6797 20.1644C51.6746 20.1644 50.729 19.9961 49.8378 19.6594C48.9466 19.3227 48.1668 18.835 47.5008 18.1938C46.8324 17.5551 46.3076 16.7753 45.9264 15.8569C45.5427 14.9409 45.3521 13.9012 45.3521 12.7377C45.3521 11.2078 45.6244 9.88584 46.1739 8.77679C46.721 7.66773 47.5404 6.81366 48.6297 6.2121C49.7189 5.61301 51.0681 5.311 52.6797 5.311V0.359863H58.6211V20.1644H52.6797ZM52.6797 11.0543C52.4148 11.0543 52.1896 11.1385 52.0064 11.3019C51.8207 11.4677 51.6796 11.6757 51.5806 11.9257C51.4815 12.1782 51.432 12.4208 51.432 12.6585C51.432 13.109 51.5533 13.4903 51.7984 13.8071C52.041 14.124 52.3356 14.2824 52.6797 14.2824V11.0543Z" fill="#3E7DBB"/>
<path d="M59.1157 16.1241C59.1157 15.6364 59.19 15.1512 59.3435 14.6684C59.4945 14.1882 59.7396 13.7475 60.0762 13.3514C60.4129 12.9553 60.8635 12.6385 61.4329 12.4008C61.9998 12.1632 62.7003 12.0443 63.5321 12.0443H66.6216C66.6216 11.7151 66.4236 11.4997 66.0275 11.4007C65.6314 11.3017 65.0373 11.2522 64.2451 11.2522H60.3436L61.7893 5.31079H66.6216C67.7951 5.31079 68.8249 5.48903 69.7111 5.84551C70.5949 6.20199 71.2856 6.76395 71.7807 7.5289C72.2758 8.29632 72.5234 9.30636 72.5234 10.559V20.1642H63.2945C62.2646 20.1642 61.4428 19.9661 60.8288 19.5701C60.2149 19.174 59.7742 18.6665 59.5118 18.0451C59.2469 17.4262 59.1157 16.785 59.1157 16.1241ZM65.2353 14.6981C65.2353 14.8838 65.3046 15.0125 65.4433 15.0843C65.5819 15.1586 65.7354 15.1933 65.9087 15.1933H66.6216V14.1832H65.9087C65.723 14.1832 65.5646 14.2228 65.4334 14.302C65.2997 14.3813 65.2353 14.5149 65.2353 14.6981Z" fill="#3E7DBB"/>
<path d="M73.1169 2.34033H78.9989V5.31101H80.9793V11.2524H79.0187V13.2724C79.0187 13.5893 79.1177 13.8344 79.3158 14.0052C79.5138 14.1785 79.744 14.2627 80.0089 14.2627L80.9595 14.2825V20.1644H79.1969C78.1126 20.1644 77.11 19.9639 76.1866 19.5604C75.2608 19.1593 74.5181 18.5355 73.9586 17.6888C73.3967 16.8447 73.1169 15.7678 73.1169 14.4607V2.34033Z" fill="#3E7DBB"/>
<path d="M81.4741 12.7377C81.4741 11.6163 81.6573 10.5839 82.0286 9.63827C82.3975 8.69508 82.9298 7.88062 83.6229 7.19241C84.3161 6.50668 85.133 5.97196 86.0787 5.58825C87.0219 5.20701 88.069 5.01392 89.2177 5.01392C90.604 5.01392 91.7972 5.23919 92.8023 5.68727C93.8049 6.13782 94.607 6.74681 95.2086 7.51919C95.8076 8.29157 96.2013 9.17782 96.3869 10.173C96.5701 11.1706 96.5305 12.2228 96.2681 13.3318H87.4353C87.4353 13.6363 87.5962 13.8616 87.9205 14.0052C88.2423 14.1512 88.6681 14.223 89.1979 14.223C89.2895 14.223 89.5172 14.223 89.8811 14.223C90.2426 14.223 90.6832 14.223 91.1981 14.223C91.7131 14.223 92.2478 14.223 92.8023 14.223C93.3568 14.223 93.8717 14.223 94.3471 14.223C94.8224 14.223 95.211 14.223 95.5155 14.223C95.8175 14.223 95.971 14.223 95.971 14.223V20.1644C95.971 20.1644 95.4016 20.1644 94.2678 20.1644C93.1316 20.1644 91.4407 20.1644 89.1979 20.1644C87.7051 20.1644 86.3782 19.8673 85.2172 19.2732C84.0537 18.679 83.1402 17.825 82.4742 16.7085C81.8058 15.5945 81.4741 14.2701 81.4741 12.7377ZM89.1979 10.2027C88.7746 10.2027 88.4008 10.2968 88.0789 10.48C87.7546 10.6656 87.5145 10.9231 87.3561 11.2523H91.0595C90.8862 10.9231 90.6387 10.6656 90.3168 10.48C89.9925 10.2968 89.6187 10.2027 89.1979 10.2027Z" fill="#3E7DBB"/>
<path d="M18.5581 69.5245V25.8357H31.6786V69.5245H18.5581Z" fill="#041220"/>
<path d="M32.9885 25.8357H43.881L51.3968 42.7587V25.8357H62.3289V69.5245H51.3572L43.9206 52.7798V69.5245H32.9885V25.8357Z" fill="#041220"/>
<path d="M76.7623 69.5245H63.6418V25.8357H76.7623V40.491L82.7928 25.8357H96.042L86.6844 47.6999L96.042 69.5245H82.7928L76.7623 54.879V69.5245Z" fill="#041220"/>
<mask id="mask3_218_1597" style="mask-type:luminance" maskUnits="userSpaceOnUse" x="41" y="75" width="39" height="3">
<path d="M41.1462 75.4583H79.8046V77.5154H41.1462V75.4583Z" fill="white"/>
</mask>
<g mask="url(#mask3_218_1597)">
<path d="M78.9729 76.9857C76.7969 76.3272 74.3832 76.2876 72.1453 76.1069C69.7168 75.9113 67.2858 75.7925 64.8548 75.7355C59.7749 75.6167 54.705 75.8172 49.6325 76.1316C46.8921 76.3 44.1566 76.5995 41.4335 76.9857C41.3072 77.0055 41.5622 77.4982 41.7058 77.4759C46.3623 76.8075 51.0387 76.2876 55.7323 76.1044C60.676 75.9113 65.6247 76.0821 70.556 76.4733C73.3559 76.6985 76.1434 77.0303 78.9432 77.2555C79.2675 77.2828 79.2601 77.0724 78.9729 76.9857Z" fill="#3E7DBB"/>
</g>
<path d="M60.2178 69.9221C66.523 69.8528 72.8263 70.0367 79.1143 70.5442C82.1368 70.7868 85.1819 71.0215 88.1797 71.5364C90.7295 71.9746 93.2398 72.7692 95.3242 74.5442C95.5569 74.7422 95.2592 75.5251 95.0859 75.6711C93.7888 76.7577 91.9768 76.9632 90.4248 76.676C90.046 76.6067 90.732 76.3668 90.8682 76.3792C92.2247 76.4979 93.3781 76.0247 94.4326 75.2053C92.0611 73.4453 89.1921 72.8442 86.4072 72.4729C82.9662 72.0149 79.5076 71.7154 76.0518 71.4827C63.377 70.6237 50.66 70.9621 38 71.9944C31.6997 72.5044 25.4089 73.1857 19.1309 73.9729C13.0731 74.732 6.80042 76.0414 0.700195 75.1936C0.678081 75.2017 0.665933 75.2056 0.666992 75.2014L0.677734 75.1907C0.65936 75.1882 0.615822 75.1771 0.582031 75.1575C1.07301 74.9143 2.05904 74.3555 1.40332 74.8469C1.36157 74.877 1.20951 74.9553 1.05469 75.0315C1.08248 75.0554 1.13876 75.0522 1.40332 74.8469C8.43386 75.1341 15.3903 73.7476 22.3516 72.844C34.9224 71.2101 47.5603 70.0608 60.2178 69.9221ZM0.538086 75.093C0.534537 75.1206 0.555053 75.1418 0.582031 75.1575C0.318589 75.2879 0.198831 75.3292 0.549805 75.0647L0.538086 75.093Z" fill="#3E7DBB"/>
</svg>
