<svg width="100" height="100" viewBox="0 0 100 100" fill="none" xmlns="http://www.w3.org/2000/svg">
<path d="M50.0004 0C74.3008 0.000164414 94.0004 19.6996 94.0004 44C94.0004 68.3004 74.3008 87.9998 50.0004 88C49.0855 88 48.1771 87.97 47.2761 87.9138C46.5347 87.8675 45.7916 88.0062 45.1283 88.3406L27.801 97.0758C25.1406 98.4169 22.0004 96.4832 22.0004 93.504V78.0262C22.0004 78.0134 22.013 78.0043 22.0252 78.0085C22.045 78.0152 22.0594 77.9894 22.0432 77.9761C12.247 69.9061 6.00037 57.6831 6.00037 44C6.00037 19.6995 25.6998 0 50.0004 0Z" fill="#12B76A"/>
<path fill-rule="evenodd" clip-rule="evenodd" d="M61.3011 35.3463C62.3602 36.1584 62.5623 37.6744 61.753 38.7356L49.7426 54.4829C49.3191 55.0381 48.6773 55.3832 47.9816 55.4295C47.286 55.4757 46.6042 55.2188 46.1113 54.7245L38.4883 47.0814C37.5455 46.1362 37.5455 44.6063 38.4883 43.6611C39.4345 42.7124 40.9713 42.7124 41.9176 43.6611L47.5783 49.3367L57.9031 35.7994C58.7154 34.7344 60.2381 34.5313 61.3011 35.3463Z" fill="#EBF1FC"/>
</svg>
