<svg width="36" height="37" viewBox="0 0 36 37" fill="none" xmlns="http://www.w3.org/2000/svg">
<path d="M5.99999 21.5C5.71614 21.501 5.43784 21.4214 5.19742 21.2705C4.957 21.1196 4.76434 20.9035 4.64181 20.6475C4.51929 20.3914 4.47193 20.1059 4.50524 19.824C4.53855 19.5421 4.65116 19.2754 4.82999 19.055L19.68 3.755C19.7914 3.62642 19.9432 3.53953 20.1105 3.5086C20.2777 3.47766 20.4506 3.50452 20.6006 3.58476C20.7506 3.66499 20.8689 3.79385 20.936 3.95016C21.0031 4.10648 21.0151 4.28097 20.97 4.445L18.09 13.475C18.0051 13.7023 17.9765 13.9468 18.0069 14.1875C18.0372 14.4282 18.1255 14.658 18.2641 14.8571C18.4028 15.0563 18.5876 15.2188 18.8029 15.3307C19.0182 15.4427 19.2574 15.5008 19.5 15.5H30C30.2838 15.499 30.5621 15.5786 30.8026 15.7295C31.043 15.8804 31.2356 16.0965 31.3582 16.3525C31.4807 16.6086 31.528 16.8941 31.4947 17.176C31.4614 17.4579 31.3488 17.7246 31.17 17.945L16.32 33.245C16.2086 33.3736 16.0568 33.4605 15.8895 33.4914C15.7222 33.5223 15.5494 33.4955 15.3994 33.4152C15.2494 33.335 15.1311 33.2062 15.064 33.0498C14.9969 32.8935 14.9849 32.719 15.03 32.555L17.91 23.525C17.9949 23.2977 18.0234 23.0532 17.9931 22.8125C17.9628 22.5718 17.8745 22.342 17.7359 22.1429C17.5972 21.9437 17.4123 21.7812 17.1971 21.6693C16.9818 21.5573 16.7426 21.4992 16.5 21.5H5.99999Z" stroke="#F4B942" stroke-width="2" stroke-linecap="round" stroke-linejoin="round"/>
</svg>
